<svg width="127" height="30" viewBox="0 0 127 30" fill="none" xmlns="http://www.w3.org/2000/svg">
<path fill-rule="evenodd" clip-rule="evenodd" d="M49.5824 21.6855L47.8681 29.6557H43.9252L50.4396 0.770734H55.1104L61.2392 29.6557H57.2533L55.5819 21.6855H49.5824ZM55.1104 18.4712L53.7818 11.5703C53.3961 9.5988 53.0104 7.02874 52.7111 4.97083H52.5389C52.2397 7.07088 51.8096 9.72738 51.4253 11.5703L50.0539 18.4712H55.1104ZM76.2895 0V24.2992C76.2895 25.8856 76.3752 28.2 76.4602 29.6564H72.9894L72.7323 27.1285H72.6037C71.918 28.585 70.3322 30 68.2329 30C64.3757 30 62.0185 25.7992 62.0185 19.329C62.0185 11.9574 65.1464 8.48592 68.4472 8.48592C70.1179 8.48592 71.4465 9.25808 72.1751 10.8431H72.2608V0H76.2895ZM72.2601 16.7568C72.2601 16.3718 72.2601 15.9004 72.2173 15.4704C72.003 13.5853 70.9315 11.9567 69.4751 11.9567C66.9457 11.9567 66.0893 15.4704 66.0893 19.3283C66.0893 23.6141 67.2036 26.6135 69.3465 26.6135C70.2465 26.6135 71.4458 26.1421 72.1316 23.657C72.2173 23.3141 72.2601 22.7991 72.2601 22.3291V16.7568ZM85.8855 29.9993C81.7289 29.9993 78.7281 26.4421 78.7281 19.2862C78.7281 11.6996 82.2847 8.48521 86.099 8.48521C90.2134 8.48521 93.1699 12.171 93.1699 19.1997C93.1699 27.4714 89.0984 29.9993 85.9276 29.9993H85.8855ZM86.0133 26.8285C88.4984 26.8285 89.0562 22.4141 89.0562 19.2433C89.0562 16.114 88.4991 11.6574 85.9283 11.6574C83.2704 11.6574 82.7568 16.114 82.7568 19.2433C82.7568 22.7141 83.3568 26.8285 85.9712 26.8285H86.0133ZM95.5985 0H99.6265V11.1853H99.7122C100.784 9.30022 102.241 8.48521 104.084 8.48521C107.64 8.48521 109.87 12.5139 109.87 18.8997C109.87 26.3563 106.827 29.9993 103.398 29.9993C101.341 29.9993 100.184 28.8843 99.2829 27.0414H99.1129L98.8979 29.6557H95.4271C95.5128 28.2421 95.5985 25.8849 95.5985 24.2984V0ZM99.6265 22.2841C99.6265 22.757 99.6693 23.2284 99.7979 23.5706C100.44 26.0999 101.684 26.6135 102.497 26.6135C104.897 26.6135 105.797 23.4427 105.797 19.1569C105.797 15.1711 104.855 11.9567 102.454 11.9567C101.126 11.9567 100.054 13.5425 99.7544 15.0425C99.6686 15.4711 99.6258 16.029 99.6258 16.4568V22.2841H99.6265ZM115.814 20.0562C115.857 25.4135 118.171 26.7414 120.613 26.7414C122.071 26.7414 123.313 26.3992 124.214 25.9699L124.814 28.8843C123.571 29.5271 121.685 29.8707 119.842 29.8707C114.614 29.8707 111.871 25.9278 111.871 19.499C111.871 12.6846 114.999 8.48449 119.328 8.48449C123.656 8.48449 125.671 12.6417 125.671 17.8711C125.671 18.899 125.627 19.5426 125.585 20.0991L115.814 20.0562ZM121.856 17.1854C121.899 13.4996 120.613 11.5288 119.028 11.5288C116.928 11.5288 115.985 14.5718 115.857 17.1854H121.856Z" fill="black"/>
<path fill-rule="evenodd" clip-rule="evenodd" d="M21.2218 0.847893H33.2557V29.6557L21.2218 0.847893ZM12.7445 0.847893H0.702026V29.6557L12.7445 0.847893ZM16.9838 11.4646L24.6512 29.6557H19.6268L17.3338 23.862H11.7216L16.9838 11.4646Z" fill="black"/>
<path fill-rule="evenodd" clip-rule="evenodd" d="M125.329 8.43164C125.449 8.4322 125.569 8.45666 125.68 8.50362C125.791 8.55058 125.892 8.61911 125.977 8.70524C126.061 8.79137 126.128 8.89341 126.173 9.00546C126.218 9.11752 126.24 9.23737 126.239 9.3581C126.239 9.88097 125.835 10.2888 125.324 10.2888C124.818 10.2888 124.406 9.88168 124.406 9.3581C124.405 9.23691 124.428 9.11678 124.474 9.0046C124.52 8.89241 124.587 8.79037 124.673 8.70431C124.758 8.61825 124.86 8.54987 124.971 8.50308C125.083 8.4563 125.203 8.43202 125.324 8.43164H125.329ZM125.324 8.57522C124.917 8.57522 124.583 8.92594 124.583 9.3581C124.583 9.79882 124.917 10.1445 125.329 10.1445C125.74 10.1488 126.069 9.79882 126.069 9.36238C126.069 8.92594 125.74 8.57522 125.329 8.57522H125.324ZM125.151 9.89811H124.987V8.8638C125.074 8.85166 125.156 8.8388 125.28 8.8388C125.436 8.8388 125.539 8.87237 125.601 8.91737C125.663 8.96237 125.696 9.03237 125.696 9.13166C125.696 9.26738 125.605 9.35024 125.494 9.38309V9.39095C125.584 9.40738 125.646 9.49024 125.666 9.64239C125.691 9.8031 125.716 9.86454 125.733 9.89811H125.56C125.535 9.86454 125.511 9.77025 125.49 9.63453C125.465 9.50238 125.399 9.4531 125.267 9.4531H125.152V9.89811H125.151ZM125.151 9.32524H125.271C125.406 9.32524 125.523 9.27595 125.523 9.14809C125.523 9.05737 125.456 8.96666 125.271 8.96666C125.218 8.96666 125.18 8.97094 125.151 8.97523V9.32524ZM34.8421 0.847893C34.9628 0.848448 35.0822 0.872908 35.1935 0.919867C35.3047 0.966825 35.4055 1.03535 35.4901 1.12148C35.5748 1.20762 35.6415 1.30966 35.6864 1.42171C35.7314 1.53377 35.7537 1.65361 35.7521 1.77434C35.7521 2.29721 35.3485 2.70508 34.8378 2.70508C34.3314 2.70508 33.9192 2.29793 33.9192 1.77434C33.9185 1.65315 33.9418 1.53303 33.9876 1.42084C34.0335 1.30865 34.101 1.20661 34.1863 1.12055C34.2716 1.03449 34.3731 0.966115 34.4849 0.919327C34.5967 0.87254 34.7166 0.848267 34.8378 0.847893H34.8421ZM34.8378 0.991465C34.4299 0.991465 34.0964 1.34219 34.0964 1.77434C34.0964 2.21507 34.4299 2.56079 34.8421 2.56079C35.2535 2.56507 35.5835 2.21507 35.5835 1.77863C35.5835 1.34219 35.2535 0.991465 34.8421 0.991465H34.8378ZM34.6649 2.31436H34.4999V1.28004C34.5967 1.26398 34.6947 1.25586 34.7928 1.25576C34.9492 1.25576 35.0521 1.2879 35.1135 1.33362C35.1757 1.37862 35.2085 1.44933 35.2085 1.54791C35.2085 1.68362 35.1178 1.76649 35.0064 1.79934V1.8072C35.0971 1.82363 35.1592 1.90649 35.1799 2.05935C35.2042 2.22007 35.2292 2.2815 35.2457 2.31507H35.0728C35.0478 2.2815 35.0228 2.18721 35.0028 2.05149C34.9778 1.91935 34.9121 1.87006 34.7799 1.87006H34.6649V2.31436ZM34.6649 1.74149H34.7842C34.9199 1.74149 35.0357 1.6922 35.0357 1.56434C35.0357 1.47362 34.9699 1.38291 34.7842 1.38291C34.7307 1.38291 34.6935 1.38719 34.6649 1.39148V1.74149Z" fill="black"/>
</svg>
